<?xml version="1.0" encoding="UTF-8" standalone="no"?>
<svg width="195px" height="72px" viewBox="0 0 195 72" version="1.1" xmlns="http://www.w3.org/2000/svg" xmlns:xlink="http://www.w3.org/1999/xlink" xmlns:sketch="http://www.bohemiancoding.com/sketch/ns">
    <!-- Generator: Sketch 3.3.3 (12081) - http://www.bohemiancoding.com/sketch -->
    <title>desk-logo-alt</title>
    <desc>Created with Sketch.</desc>
    <defs></defs>
    <g id="Page-1" stroke="none" stroke-width="1" fill="none" fill-rule="evenodd" sketch:type="MSPage">
        <g id="Desktop" sketch:type="MSArtboardGroup" transform="translate(0.000000, -155.000000)">
            <g id="desk-logo-alt" sketch:type="MSLayerGroup" transform="translate(0.000000, 155.000000)">
                <path d="M42.7293127,7.85228571 C46.040756,4.39628571 50.6513918,2.252 55.7506151,2.252 C62.5280928,2.252 68.4421993,6.038 71.5904948,11.6588571 C74.328354,10.4334286 77.3574261,9.752 80.5442268,9.752 C92.7694708,9.752 102.680412,19.7665714 102.680412,32.1211429 C102.680412,44.4754286 92.7694708,54.4902857 80.5442268,54.4902857 C79.0516529,54.4902857 77.5935911,54.34 76.1834467,54.0551429 C73.4107904,59.0094286 68.1253162,62.3574286 62.0600412,62.3574286 C59.521268,62.3574286 57.1194021,61.7702857 54.9807973,60.7251429 C52.1696357,67.3494286 45.6189107,71.9942857 37.9863333,71.9942857 C30.0363024,71.9942857 23.2602509,66.9557143 20.6607251,59.8891429 C19.5238247,60.13 18.345567,60.2565714 17.1379313,60.2565714 C7.67279381,60.2565714 0,52.4905714 0,42.9102857 C0,36.4894286 3.4469244,30.884 8.56982131,27.8845714 C7.51506529,25.4531429 6.92921649,22.7705714 6.92921649,19.9508571 C6.92921649,8.93228571 15.8578488,0 26.8723196,0 C33.3389038,0 39.0855842,3.07971429 42.7293127,7.85228571" id="Fill-1" fill="#00A1E0" sketch:type="MSShapeGroup"></path>
                <path d="M15.023416,37.3957143 C14.9586703,37.5642857 15.0465191,37.5994286 15.0673404,37.6294286 C15.2598662,37.7691429 15.4560999,37.8702857 15.6537597,37.9837143 C16.7005294,38.5394286 17.6899693,38.7022857 18.7236188,38.7022857 C20.8299933,38.7022857 22.1385982,37.5802857 22.1385982,35.7742857 L22.1385982,35.7382857 C22.1385982,34.0682857 20.6617116,33.4611429 19.2775226,33.0234286 L19.0964057,32.9645714 C18.0527734,32.6248571 17.1511823,32.3317143 17.1511823,31.6428571 L17.1511823,31.6071429 C17.1511823,31.0174286 17.6785604,30.5837143 18.4942992,30.5837143 C19.4018799,30.5837143 20.477172,30.886 21.17055,31.2694286 C21.17055,31.2694286 21.37477,31.4017143 21.4492133,31.204 C21.4894298,31.0974286 21.8405397,30.152 21.8773336,30.0494286 C21.9172648,29.9382857 21.8470999,29.8554286 21.7752236,29.8114286 C20.9831583,29.3288571 19.8896119,29 18.7575604,29 L18.5473507,29.0008571 C16.619526,29.0008571 15.2732717,30.168 15.2732717,31.8394286 L15.2732717,31.8754286 C15.2732717,33.6365714 16.7578593,34.2091429 18.1494641,34.6074286 L18.372794,34.6765714 C19.3859074,34.988 20.2604023,35.2568571 20.2604023,35.9708571 L20.2604023,36.0065714 C20.2604023,36.6602857 19.6919521,37.146 18.7763851,37.146 C18.4209968,37.146 17.2880896,37.1397143 16.0636256,36.3637143 C15.9153095,36.2777143 15.8300277,36.2151429 15.7159384,36.1451429 C15.6557562,36.1082857 15.5048731,36.0422857 15.4392717,36.2405714 L15.023416,37.3957143" id="Fill-2" fill="#FFFFFF" sketch:type="MSShapeGroup"></path>
                <path d="M46.023246,37.3957143 C45.9587855,37.5642857 46.0466343,37.5994286 46.0674556,37.6294286 C46.2599814,37.7691429 46.456215,37.8702857 46.6535896,37.9837143 C47.7006446,38.5394286 48.6900845,38.7022857 49.7237339,38.7022857 C51.8301085,38.7022857 53.1384281,37.5802857 53.1384281,35.7742857 L53.1384281,35.7382857 C53.1384281,34.0682857 51.6618267,33.4611429 50.2773525,33.0234286 L50.0965209,32.9645714 C49.0528886,32.6248571 48.1512975,32.3317143 48.1512975,31.6428571 L48.1512975,31.6071429 C48.1512975,31.0174286 48.6786755,30.5837143 49.4944144,30.5837143 C50.4019951,30.5837143 51.477002,30.886 52.1706652,31.2694286 C52.1706652,31.2694286 52.3748852,31.4017143 52.4493285,31.204 C52.4895449,31.0974286 52.8403697,30.152 52.8774487,30.0494286 C52.91738,29.9382857 52.847215,29.8554286 52.7753388,29.8114286 C51.9829882,29.3288571 50.8894419,29 49.7576755,29 L49.5471807,29.0008571 C47.6196412,29.0008571 46.2733869,30.168 46.2733869,31.8394286 L46.2733869,31.8754286 C46.2733869,33.6365714 47.7579745,34.2091429 49.1492941,34.6074286 L49.3729092,34.6765714 C50.3857374,34.988 51.2605175,35.2568571 51.2605175,35.9708571 L51.2605175,36.0065714 C51.2605175,36.6602857 50.6920673,37.146 49.7765003,37.146 C49.421112,37.146 48.2879195,37.1397143 47.0634556,36.3637143 C46.9151394,36.2777143 46.8284315,36.218 46.7160535,36.1451429 C46.6778336,36.1205714 46.5001394,36.0517143 46.4393869,36.2405714 L46.023246,37.3957143" id="Fill-3" fill="#FFFFFF" sketch:type="MSShapeGroup"></path>
                <path d="M68.329378,31.9365714 C68.1559622,31.3514286 67.8869966,30.8362857 67.5290412,30.4065714 C67.1702302,29.9757143 66.7161546,29.6297143 66.1787938,29.3782857 C65.6417182,29.1271429 65.0073814,29 64.2940378,29 C63.5806942,29 62.9463574,29.1271429 62.4089966,29.3782857 C61.8716357,29.6297143 61.4172749,29.9757143 61.0584639,30.4071429 C60.7005086,30.8377143 60.4309725,31.3522857 60.2584124,31.9365714 C60.0869931,32.5177143 60,33.1542857 60,33.8291429 C60,34.5042857 60.0869931,35.1414286 60.2584124,35.7214286 C60.4309725,36.3057143 60.6999381,36.8205714 61.0587491,37.2517143 C61.4178454,37.6831429 61.8727766,38.0265714 62.4098522,38.2717143 C62.9474983,38.5165714 63.5812646,38.6411429 64.2940378,38.6411429 C65.006811,38.6411429 65.6402921,38.5165714 66.1779381,38.2717143 C66.715299,38.0265714 67.1696598,37.6831429 67.5290412,37.2517143 C67.8869966,36.8217143 68.1559622,36.3068571 68.329378,35.7214286 C68.5007973,35.1402857 68.5877904,34.5034286 68.5877904,33.8291429 C68.5877904,33.1548571 68.5007973,32.5182857 68.329378,31.9365714 M66.5706907,33.8291429 C66.5706907,34.8497143 66.380732,35.6551429 66.0065189,36.2228571 C65.6354433,36.7862857 65.0755498,37.06 64.2940378,37.06 C63.5125258,37.06 62.9551993,36.7865714 62.5903986,36.2234286 C62.22189,35.6554286 62.0344983,34.8497143 62.0344983,33.8291429 C62.0344983,32.8091429 62.2216048,32.0062857 62.5901134,31.444 C62.9551993,30.8865714 63.5125258,30.616 64.2940378,30.616 C65.0755498,30.616 65.6354433,30.8868571 66.0068041,31.4445714 C66.3810172,32.0065714 66.5706907,32.8091429 66.5706907,33.8291429" id="Fill-4" fill="#FFFFFF" sketch:type="MSShapeGroup"></path>
                <path d="M82.7703471,36.7962857 C82.7124467,36.6251429 82.5461615,36.6897143 82.5461615,36.6897143 C82.2900309,36.7877143 82.0184983,36.8782857 81.7284261,36.9237143 C81.4352165,36.9697143 81.111488,36.9928571 80.7646564,36.9928571 C79.9144055,36.9928571 79.2375704,36.7388571 78.7541168,36.2382857 C78.2689519,35.7368571 77.9957079,34.9265714 77.9985601,33.8305714 C78.0016976,32.8337143 78.2424261,32.0837143 78.6736838,31.5111429 C79.1020893,30.9425714 79.7549656,30.6514286 80.6240412,30.6514286 C81.3493643,30.6514286 81.9029828,30.7354286 82.4828419,30.9174286 C82.4828419,30.9174286 82.6206048,30.978 82.6864914,30.7957143 C82.8407973,30.368 82.9548866,30.0628571 83.1191753,29.5925714 C83.1659519,29.4585714 83.0512921,29.4014286 83.0096495,29.3848571 C82.781756,29.2962857 82.2432543,29.1505714 81.836811,29.0885714 C81.4566082,29.0308571 81.0128007,29 80.5179381,29 C79.7794948,29 79.1206289,29.1268571 78.5578832,29.3777143 C77.9962784,29.6285714 77.5196701,29.9745714 77.1423196,30.4054286 C76.7646838,30.8362857 76.4771787,31.3508571 76.2866495,31.9351429 C76.0961203,32.5165714 76,33.1545714 76,33.8308571 C76,35.2922857 76.3936082,36.472 77.1694158,37.3365714 C77.9483608,38.2042857 79.1163505,38.6448571 80.6411546,38.6448571 C81.5416048,38.6448571 82.4657285,38.4622857 83.1308694,38.2 C83.1308694,38.2 83.2577938,38.1391429 83.2024605,37.9908571 L82.7703471,36.7962857" id="Fill-5" fill="#FFFFFF" sketch:type="MSShapeGroup"></path>
                <path d="M91.9982337,31.6045714 C91.8490619,31.0397143 91.4794124,30.47 91.2372577,30.2088571 C90.8539175,29.796 90.4794192,29.5065714 90.1069175,29.3465714 C89.6217526,29.1377143 89.0393265,29 88.4027079,29 C87.6594158,29 86.9848625,29.1254286 86.4372337,29.3822857 C85.8893196,29.64 85.4286838,29.9925714 85.0670206,30.4297143 C84.7056426,30.8671429 84.4343952,31.3877143 84.2609794,31.978 C84.0878488,32.5648571 84,33.2051429 84,33.8802857 C84,34.5677143 84.090701,35.2085714 84.2701065,35.784 C84.4506529,36.3651429 84.7410103,36.8751429 85.1323368,37.2991429 C85.5236632,37.7251429 86.0270825,38.0594286 86.629189,38.2922857 C87.2278729,38.5242857 87.9549072,38.6448571 88.7891856,38.6425714 C90.508512,38.6371429 91.4132405,38.2525714 91.7868832,38.046 C91.8527698,38.0094286 91.9152337,37.9451429 91.8373677,37.7611429 L91.4477526,36.6694286 C91.3881409,36.5065714 91.2238522,36.566 91.2238522,36.566 C90.7974433,36.7251429 90.193055,37.0097143 88.7803436,37.0068571 C87.8579313,37.0051429 87.1739656,36.732 86.744134,36.3051429 C86.30489,35.8691429 86.0889759,35.2277143 86.0521821,34.3222857 L92.0027973,34.3271429 C92.0027973,34.3271429 92.1593849,34.3254286 92.1756426,34.172 C92.182488,34.1085714 92.380433,32.9471429 91.9982337,31.6045714 L91.9982337,31.6045714 Z M86.0792784,32.8508571 C86.1634192,32.2831429 86.318866,31.812 86.5601649,31.444 C86.9252509,30.8865714 87.4802955,30.5791429 88.2618076,30.5791429 C89.0433196,30.5791429 89.558433,30.8868571 89.9297938,31.4445714 C90.1748007,31.8125714 90.2820447,32.3037143 90.3242577,32.8514286 L86.0792784,32.8508571 L86.0792784,32.8508571 Z" id="Fill-6" fill="#FFFFFF" sketch:type="MSShapeGroup"></path>
                <path d="M43.9982337,31.6045714 C43.8487766,31.0397143 43.4794124,30.47 43.2372577,30.2088571 C42.8539175,29.796 42.4794192,29.5065714 42.1069175,29.3465714 C41.6217526,29.1377143 41.0393265,29 40.4024227,29 C39.659701,29 38.9848625,29.1254286 38.4372337,29.3822857 C37.8893196,29.64 37.4286838,29.9925714 37.0670206,30.4297143 C36.7053574,30.8671429 36.4343952,31.3877143 36.2609794,31.978 C36.0878488,32.5648571 36,33.2051429 36,33.8802857 C36,34.5677143 36.090701,35.2085714 36.2701065,35.784 C36.4509381,36.3651429 36.7410103,36.8751429 37.1323368,37.2991429 C37.5236632,37.7251429 38.0270825,38.0594286 38.629189,38.2922857 C39.2281581,38.5242857 39.9549072,38.6448571 40.7894708,38.6425714 C42.5087973,38.6371429 43.4132405,38.2525714 43.7868832,38.046 C43.8527698,38.0094286 43.9152337,37.9451429 43.8370825,37.7611429 L43.4480378,36.6694286 C43.3884261,36.5065714 43.2238522,36.566 43.2238522,36.566 C42.7974433,36.7251429 42.1933402,37.0097143 40.7800584,37.0068571 C39.8582165,37.0051429 39.1739656,36.732 38.7444192,36.3051429 C38.3051753,35.8691429 38.0889759,35.2277143 38.0524674,34.3222857 L44.0027973,34.3271429 C44.0027973,34.3271429 44.1596701,34.3254286 44.1756426,34.172 C44.182488,34.1085714 44.380433,32.9471429 43.9982337,31.6045714 L43.9982337,31.6045714 Z M38.0792784,32.8508571 C38.1634192,32.2831429 38.318866,31.812 38.5598797,31.444 C38.9252509,30.8865714 39.4802955,30.5791429 40.2618076,30.5791429 C41.0433196,30.5791429 41.558433,30.8868571 41.930079,31.4445714 C42.1748007,31.8125714 42.2820447,32.3037143 42.3242577,32.8514286 L38.0792784,32.8508571 L38.0792784,32.8508571 Z" id="Fill-7" fill="#FFFFFF" sketch:type="MSShapeGroup"></path>
                <path d="M27.819134,32.5742857 C27.5772646,32.5565714 27.2646598,32.5474286 26.8898763,32.5474286 C26.3804674,32.5474286 25.8870309,32.6108571 25.4243986,32.7357143 C24.9594845,32.8611429 24.5413471,33.0557143 24.1816804,33.3131429 C23.8200172,33.5731429 23.5293746,33.9034286 23.3185945,34.2962857 C23.107244,34.6894286 23,35.152 23,35.6702857 C23,36.1985714 23.0918419,36.6568571 23.2729588,37.0314286 C23.454646,37.4077143 23.7159107,37.7217143 24.0490515,37.9642857 C24.3799107,38.2057143 24.7877801,38.3825714 25.2612509,38.4902857 C25.7284467,38.5971429 26.258677,38.6517143 26.83711,38.6517143 C27.4480584,38.6517143 28.0561546,38.6005714 28.6448557,38.5005714 C29.2292784,38.4011429 29.945189,38.2551429 30.1437045,38.2091429 C30.3422199,38.1634286 30.5609863,38.1034286 30.5609863,38.1034286 C30.7084467,38.066 30.6967526,37.908 30.6967526,37.908 L30.6939003,32.4562857 C30.6939003,31.26 30.3755911,30.3745714 29.7480997,29.8242857 C29.1234605,29.2771429 28.2041856,29 27.0148041,29 C26.5675739,29 25.8502371,29.0605714 25.4192646,29.1471429 C25.4192646,29.1471429 24.1203574,29.3991429 23.5847079,29.8194286 C23.5847079,29.8194286 23.4674811,29.892 23.5316564,30.0565714 L23.9529313,31.1902857 C24.0054124,31.3371429 24.1480241,31.2868571 24.1480241,31.2868571 C24.1480241,31.2868571 24.1930893,31.2691429 24.2458557,31.2377143 C25.3907423,30.6145714 26.8391065,30.6331429 26.8391065,30.6331429 C27.4822852,30.6331429 27.9771478,30.7628571 28.3097182,31.0182857 C28.6348729,31.268 28.799732,31.644 28.799732,32.4385714 L28.799732,32.6908571 C28.2888969,32.6168571 27.819134,32.5742857 27.819134,32.5742857 L27.819134,32.5742857 Z M25.4506392,36.7637143 C25.2176117,36.5774286 25.1853814,36.5311429 25.1075155,36.4102857 C24.989433,36.2274286 24.9292509,35.9671429 24.9292509,35.6348571 C24.9292509,35.1111429 25.1026667,34.734 25.4603368,34.4805714 C25.4569141,34.4817143 25.9737388,34.0342857 27.1865086,34.05 C28.0393265,34.0611429 28.8025842,34.1877143 28.8025842,34.1877143 L28.8025842,36.898 L28.8028694,36.898 C28.8028694,36.898 28.046457,37.0605714 27.1953505,37.112 C25.9845773,37.1851429 25.4472165,36.7625714 25.4506392,36.7637143 L25.4506392,36.7637143 Z" id="Fill-8" fill="#FFFFFF" sketch:type="MSShapeGroup"></path>
                <path d="M75.494543,29.3943326 C75.5401787,29.2594755 75.4443436,29.1946183 75.4055533,29.1797612 C75.3040137,29.140904 74.7980275,29.0337612 74.4078419,29.0094755 C73.6599863,28.9637612 73.2449863,29.0894755 72.873055,29.2571897 C72.5042612,29.4237612 72.0952509,29.692904 71.8676426,30.0000469 L71.8670722,29.2734755 C71.8670722,29.1737612 71.7960515,29.092904 71.6962234,29.092904 L70.1705636,29.092904 C70.0710206,29.092904 70,29.1737612 70,29.2734755 L70,38.166904 C70,38.2666183 70.080433,38.3474755 70.1802612,38.3474755 L71.7441409,38.3474755 C71.8436838,38.3474755 71.9244021,38.2666183 71.9244021,38.166904 L71.9244021,33.7237612 C71.9244021,33.1271897 71.9905739,32.532904 72.1212062,32.1591897 C72.2504124,31.7891897 72.4255395,31.4940469 72.6428797,31.2820469 C72.8599347,31.070904 73.1075086,30.9226183 73.3779003,30.8394755 C73.6548522,30.7546183 73.9606117,30.726904 74.1765258,30.726904 C74.4877045,30.726904 74.8302577,30.806904 74.8302577,30.806904 C74.9452027,30.8197612 75.0088076,30.7494755 75.0473127,30.6457612 C75.1497079,30.3734755 75.4392096,29.5563326 75.494543,29.3943326" id="Fill-9" fill="#FFFFFF" sketch:type="MSShapeGroup"></path>
                <path d="M61.2695694,25.2028571 C61.0796106,25.144 60.9070505,25.1048571 60.6811536,25.0628571 C60.4526896,25.0214286 60.1805866,25 59.8722601,25 C58.7963975,25 57.947858,25.3051429 57.3517412,25.9065714 C56.7601879,26.504 56.3577378,27.4137143 56.1560848,28.6105714 L56.0830677,29.014 L54.7319646,29.014 C54.7319646,29.014 54.5671055,29.008 54.5325934,29.1877143 L54.3106896,30.4271429 C54.2952876,30.546 54.3457721,30.62 54.5049268,30.6194286 L55.8195213,30.6194286 L54.4852463,38.0808571 C54.3808546,38.6817143 54.261346,39.176 54.1290024,39.5502857 C53.9980848,39.92 53.87059,40.1971429 53.7137171,40.3982857 C53.5616931,40.5925714 53.4176553,40.736 53.1689405,40.8194286 C52.9638649,40.8885714 52.7277,40.9202857 52.4687171,40.9202857 C52.3246793,40.9202857 52.1330092,40.8962857 51.9918237,40.868 C51.8503529,40.84 51.7767652,40.8082857 51.6703769,40.7634286 C51.6703769,40.7634286 51.5163563,40.7045714 51.4556037,40.8591429 C51.4059749,40.9857143 51.0557206,41.9517143 51.0137927,42.0708571 C50.9721501,42.1888571 51.0311914,42.2822857 51.1056347,42.3085714 C51.2804766,42.3711429 51.4108237,42.412 51.6492704,42.4682857 C51.9804147,42.5462857 52.2596484,42.5511429 52.5211982,42.5511429 C53.0688271,42.5511429 53.5682532,42.4737143 53.9818271,42.3242857 C54.3985384,42.1734286 54.7610573,41.9111429 55.0816484,41.5557143 C55.4281948,41.1714286 55.6463907,40.7702857 55.8551742,40.222 C56.0616759,39.6785714 56.2376587,39.0048571 56.3782738,38.2191429 L57.7191089,30.6194286 L59.6794491,30.6194286 C59.6794491,30.6194286 59.8443082,30.6254286 59.8788202,30.4457143 L60.1004388,29.2062857 C60.1161261,29.0874286 60.0653563,29.0134286 59.9062017,29.014 L58.0037618,29.014 C58.0134594,28.9708571 58.0995969,28.3008571 58.318078,27.6694286 C58.4110608,27.4 58.5864731,27.1828571 58.7353597,27.0334286 C58.8816793,26.8868571 59.0496759,26.7822857 59.233645,26.7228571 C59.4224628,26.6617143 59.6375213,26.6308571 59.8722601,26.6308571 C60.0516656,26.6308571 60.2279336,26.6517143 60.3611329,26.6802857 C60.5459577,26.7194286 60.617834,26.7402857 60.6657515,26.7548571 C60.8597034,26.814 60.8856587,26.7565714 60.9238786,26.6628571 L61.3790951,25.4105714 C61.4258718,25.2765714 61.311212,25.2191429 61.2695694,25.2028571" id="Fill-10" fill="#FFFFFF" sketch:type="MSShapeGroup"></path>
                <path d="M34.9195533,37.9042857 C34.9195533,38.004 34.8482474,38.0848571 34.7489897,38.0848571 L33.1705636,38.0848571 C33.0710206,38.0848571 33,38.004 33,37.9042857 L33,25.1802857 C33,25.0805714 33.0710206,25 33.1705636,25 L34.7489897,25 C34.8482474,25 34.9195533,25.0805714 34.9195533,25.1802857 L34.9195533,37.9042857" id="Fill-11" fill="#FFFFFF" sketch:type="MSShapeGroup"></path>
                <path d="M191.512827,25.1226683 L185.717362,23.9614964 L179.242221,31.298945 L179.242221,13 L173.788478,15.1860068 L173.788478,37.9396066 C173.08535,34.4925873 169.645091,33.5537496 166.804103,32.7806138 C164.721522,32.2138713 162.92329,31.7243165 162.999089,30.2959241 C163.07405,28.8952185 164.463136,28.3410609 165.806156,28.4127952 C167.392905,28.4979534 168.681484,29.1540491 169.641322,30.3647218 L173.649863,26.7960479 C171.475569,24.3675709 167.947785,23.8280958 166.011776,23.7244797 C161.555981,23.4857851 156.941888,25.4599451 156.677639,30.4091887 C156.669682,30.5660811 156.665913,30.7179396 156.666332,30.867281 C155.073301,26.8073743 151.128834,23.932551 146.511391,23.932551 C141.226834,23.932551 136.824224,27.6975502 135.820833,32.6958751 L135.820833,13.005873 L130.36709,15.1914603 L130.36709,25.3991178 C128.761915,24.4678311 126.898773,23.932551 124.909998,23.932551 C118.884623,23.932551 114,28.8247427 114,34.860907 C114,40.8966517 118.884623,45.789263 124.909998,45.789263 C130.416087,45.789263 134.966945,41.7020889 135.710694,36.3916571 C136.454025,41.7020889 141.004882,45.789263 146.511391,45.789263 C150.656871,45.789263 154.26171,43.4732116 156.108101,40.0622691 L150.204173,38.8792833 C149.233027,39.7757517 147.937329,40.3248752 146.512228,40.3248752 C144.276374,40.3248752 142.35544,38.976607 141.513278,37.0473333 L146.51516,37.0473333 L157.202367,37.0469138 C157.345589,36.3404783 157.420969,35.6097118 157.420969,34.860907 C157.420969,34.4703538 157.40003,34.0844152 157.360247,33.704769 C158.609879,35.8748349 161.324815,36.6106353 163.633956,37.2365271 C165.798618,37.822986 167.668042,38.3293207 167.583867,39.8953087 C167.524401,41.0237598 166.26053,41.6320326 164.20475,41.521285 C162.298474,41.4197664 160.813907,40.6147487 159.552548,38.9954844 L155.551127,42.9920468 C157.899632,45.5203644 161.638899,46.0833314 163.684209,46.19324 C165.871904,46.3106996 172.764567,46.2234439 173.788478,40.7179453 L173.788478,45.7921995 L179.242221,45.7921995 L179.242221,36.2377011 L187.672217,45.7896825 L194.491593,45.7896825 L183.883534,33.7685328 L191.512827,25.1226683 Z M127.395025,39.7249923 C126.649181,40.107575 125.805763,40.3248752 124.910835,40.3248752 C121.898567,40.3248752 119.456255,37.8787793 119.456255,34.860907 C119.456255,31.8434541 121.898567,29.3969387 124.910835,29.3969387 C127.923103,29.3969387 130.364996,31.8434541 130.364996,34.860907 C130.364996,36.0615117 129.977627,37.1715048 129.32224,38.0730072 C129.420234,38.7232299 129.781639,39.4464453 130.738965,40.0861806 C131.202133,40.395351 129.388407,40.8899397 127.395025,39.7249923 L127.395025,39.7249923 Z M141.513278,32.6753197 C142.355022,30.7456265 144.276374,29.3969387 146.512228,29.3969387 C148.748501,29.3969387 150.669853,30.7456265 151.511597,32.6753197 L141.513278,32.6753197 L141.513278,32.6753197 Z" id="Fill-13" fill="#768082" sketch:type="MSShapeGroup"></path>
            </g>
        </g>
    </g>
</svg>